<?xml version="1.0" encoding="utf-8"?>
<!-- Generator: Adobe Illustrator 19.2.1, SVG Export Plug-In . SVG Version: 6.00 Build 0)  -->
<svg version="1.1" id="Слой_1" xmlns="http://www.w3.org/2000/svg" xmlns:xlink="http://www.w3.org/1999/xlink" x="0px" y="0px"
	 viewBox="0 0 20 20" style="enable-background:new 0 0 20 20;" xml:space="preserve">
<path d="M11,3v0.6c2.3,0.4,4,2.3,4,4.7v1.1c0,1.4,0.5,2.8,1.3,3.9l0.5,0.6c0.2,0.3,0.2,0.6,0.1,0.8S16.5,15,16.3,15H3.8c-0.3,0-0.6-0.2-0.7-0.4S3,14,3.2,13.8l0.5-0.6C4.5,12.1,5,10.7,5,9.3V8.3c0-2.3,1.7-4.3,4-4.7V3c0-0.5,0.4-1,1-1C10.5,2,11,2.5,11,3z M9.8,5C8,5,6.5,6.5,6.5,8.3v1.1c0,1.5-0.4,2.9-1.3,4.2h9.5c-0.8-1.3-1.2-2.7-1.2-4.2V8.3C13.5,6.5,12,5,10.3,5H9.8z M12,16c0,0.5-0.2,1.1-0.6,1.4S10.5,18,10,18c-0.5,0-1.1-0.2-1.4-0.6S8,16.5,8,16H12z"/>
</svg>
