<svg width="628" height="740" viewBox="0 0 628 740" xmlns="http://www.w3.org/2000/svg">
<path d="M498.211 594.699C439.359 594.699 380.402 594.91 321.551 594.594C300.668 594.488 284.742 584.891 273.879 566.961C267.973 557.152 264.914 546.5 265.125 535.109C265.23 525.406 267.867 516.23 272.613 507.582C281.473 491.34 290.227 475.098 298.875 458.855C310.266 437.551 321.656 416.246 333.047 394.836C344.859 372.793 356.566 350.644 368.379 328.601C382.617 301.918 396.961 275.129 411.199 248.445C424.488 223.555 437.566 198.664 451.066 173.879C455.918 164.914 463.301 157.848 472.477 153.523C493.781 143.398 514.242 144.875 533.121 159.43C540.187 164.809 544.934 172.191 549.152 180.101C568.453 216.699 587.965 253.086 607.371 289.578C623.297 319.426 639.328 349.273 655.254 379.226C673.816 414.031 692.379 448.941 710.941 483.746C716.004 493.238 721.805 502.519 726.234 512.328C734.777 531.418 732.984 550.191 722.121 567.91C713.262 582.465 700.184 591.113 683.414 593.961C680.883 594.383 678.352 594.594 675.82 594.594C616.441 594.699 557.379 594.699 498.211 594.699ZM495.891 569.281C556.957 569.281 617.918 569.281 678.984 569.281C680.355 569.281 682.043 569.281 683.203 568.648C694.277 562.531 701.977 553.566 705.562 541.332C706.09 539.434 706.301 537.535 705.246 535.531C686.895 501.359 668.754 467.187 650.508 433.121C632.051 398.633 613.699 364.25 595.242 329.762C581.32 303.605 567.082 277.66 553.477 251.398C543.773 232.836 532.383 215.117 525.316 195.184C522.996 188.539 518.672 182.844 512.133 179.363C498.105 171.98 477.012 176.199 468.363 195.605C466.57 199.613 465.41 203.937 463.406 207.84C457.5 219.441 451.277 230.937 445.266 242.434C426.387 277.976 407.508 313.519 388.629 349.168C375.129 374.586 361.629 399.898 348.129 425.316C330.832 457.906 313.641 490.601 296.133 523.191C292.547 529.836 291.07 536.48 292.23 544.074C293.391 551.562 296.133 558.207 301.406 563.586C305.098 567.383 309.316 569.703 315.117 569.703C375.34 569.281 435.562 569.281 495.891 569.281Z" fill="#4F163A" fill-opacity="0.5"/>
<path d="M517.195 371C517.195 396.629 517.195 422.152 517.195 447.781C517.195 458.223 508.652 466.765 498.105 466.765C487.664 466.765 479.121 458.223 479.121 447.676C479.121 396.523 479.121 345.265 479.121 294.113C479.121 284.726 486.293 276.394 495.574 275.234C504.855 273.969 514.031 280.086 516.457 289.156C516.879 290.738 517.09 292.531 517.09 294.219C517.195 319.848 517.195 345.371 517.195 371Z" fill="#4F163A" fill-opacity="0.5"/>
<path d="M517.195 499.039C517.301 508.742 509.602 518.023 498.105 517.918C486.609 517.812 478.91 508.531 479.121 498.406C479.332 488.914 486.609 479.633 498.211 479.738C510.867 479.949 517.406 489.969 517.195 499.039Z" fill="#4F163A" fill-opacity="0.5"/>
</svg>
