<svg xmlns="http://www.w3.org/2000/svg" viewBox="0 0 20 20">
<path d="M17,12c0.7,0.3,1.1,1.1,0.9,1.9l-0.7,2.8c-0.1,0.8-0.8,1.3-1.6,1.3C8.1,18,2,11.9,2,4.3c0-0.8,0.5-1.4,1.3-1.6l2.8-0.7C6.9,1.9,7.7,2.3,8,3l1.3,3.1C9.6,6.8,9.4,7.6,8.9,8L7.8,8.9c0.8,1.4,2,2.5,3.4,3.3l0.8-1c0.5-0.6,1.3-0.8,1.9-0.5L17,12z M16.5,13.6c0-0.1,0-0.1-0.1-0.2l-3.1-1.3c-0.1,0-0.1,0-0.2,0L12,13.6c-0.2,0.3-0.6,0.3-0.9,0.2c-2.1-1-3.8-2.8-4.8-4.8C6,8.6,6.1,8.3,6.4,8.1l1.5-1.3c0.1,0,0.1-0.1,0-0.2L6.6,3.6c0,0-0.1-0.1-0.1-0.1l0,0L3.6,4.2c-0.1,0-0.1,0.1-0.1,0.1C3.5,11,9,16.5,15.7,16.5c0.1,0,0.1-0.1,0.1-0.1L16.5,13.6z"/>
</svg>
