<svg xmlns="http://www.w3.org/2000/svg" viewBox="0 0 20 20">
<path d="M10,11.8c-1.6,0-2.8-1.3-2.8-2.8c0-1.6,1.3-2.8,2.8-2.8c1.6,0,2.8,1.3,2.8,2.8C12.8,10.5,11.6,11.8,10,11.8z M10,7.4c-0.8,0-1.5,0.7-1.5,1.5c0,0.8,0.7,1.5,1.5,1.5c0.8,0,1.5-0.7,1.5-1.5C11.5,8.1,10.8,7.4,10,7.4z M15.3,7.4c-1.2,0-2.2-1-2.2-2.2C13.1,4,14,3,15.3,3c1.2,0,2.2,1,2.2,2.2C17.4,6.4,16.5,7.4,15.3,7.4z M11.3,12.6c2.2,0,3.9,1.6,3.9,3.7c0,0.4-0.4,0.7-0.8,0.7H5.5c-0.4,0-0.8-0.3-0.8-0.7c0-2,1.7-3.7,3.9-3.7H11.3z M6.1,15.7h7.7c-0.3-1-1.3-1.8-2.5-1.8H8.6C7.4,13.9,6.4,14.7,6.1,15.7z M16.3,8.3c1.3,0,2.4,1.1,2.4,2.6c0,0.3-0.2,0.5-0.5,0.5h-5.5c0.6-0.6,0.9-1.5,0.9-2.4c0-0.1,0-0.3,0-0.4c0.3-0.1,0.6-0.2,1-0.2H16.3z M6.3,8.9c0,0.9,0.4,1.8,0.9,2.4H1.7c-0.3,0-0.5-0.2-0.5-0.5c0-1.4,1.1-2.6,2.4-2.6h1.7c0.4,0,0.7,0.1,1,0.2C6.3,8.6,6.3,8.8,6.3,8.9z M4.8,7.4c-1.2,0-2.2-1-2.2-2.2C2.6,4,3.5,3,4.8,3C6,3,6.9,4,6.9,5.2C6.9,6.4,6,7.4,4.8,7.4z"/>
</svg>
