<svg xmlns="http://www.w3.org/2000/svg" viewBox="0 0 20 20">
<path d="M17.9,5.7c0.4,1.6-0.1,3.4-1.3,4.6s-2.9,1.7-4.5,1.3l-5.7,5.7C5.9,17.7,5.2,18,4.5,18s-1.4-0.3-1.8-0.8C2.3,16.7,2,16.1,2,15.4s0.3-1.3,0.7-1.8l5.8-5.7C8.1,6.3,8.6,4.6,9.8,3.4c1.2-1.2,2.9-1.7,4.6-1.3c0.4,0.1,0.7,0.4,0.8,0.8c0.1,0.4,0,0.8-0.3,1.1L13,5.8l0.2,1l1,0.2L16,5.1c0.3-0.3,0.7-0.4,1.1-0.3C17.5,5,17.8,5.3,17.9,5.7z M15.5,9.2c0.7-0.6,1-1.5,1-2.4l-1.8,1.8l-2.8-0.5l-0.5-2.8l1.7-1.8h0c-0.8,0-1.7,0.3-2.3,1c-0.9,0.9-1.2,2.2-0.7,3.4l0.1,0.4l-6.4,6.3c-0.2,0.2-0.3,0.5-0.3,0.8c0,0.3,0.1,0.6,0.3,0.8c0.4,0.4,1.1,0.4,1.5,0l6.4-6.3l0.4,0.2C13.3,10.4,14.6,10.1,15.5,9.2z M4.7,14.7c0.3,0,0.5,0.3,0.5,0.5c0,0.3-0.2,0.5-0.5,0.5s-0.5-0.3-0.5-0.5C4.3,15,4.4,14.7,4.7,14.7z"/>
</svg>
