<?xml version="1.0" encoding="utf-8"?>
<!-- Generator: Adobe Illustrator 19.2.1, SVG Export Plug-In . SVG Version: 6.00 Build 0)  -->
<svg version="1.1" id="Слой_1" xmlns="http://www.w3.org/2000/svg" xmlns:xlink="http://www.w3.org/1999/xlink" x="0px" y="0px"
	 viewBox="0 0 512 512" style="enable-background:new 0 0 512 512;" xml:space="preserve">
<path d="M432.7,356.3c-5-8.4-14.5-12.5-24.1-10.8c-38.2,7.4-77.2-2.6-107.3-27.4c-30.6-25.2-48.1-62.6-48.1-102.4c0-47.5,25.4-91.6,66.2-115c8.5-4.9,12.9-14.3,11.3-24c-1.6-9.7-8.9-17.1-18.5-18.9c-10.2-2-26.2-3.5-36.5-3.5C165.5,54.4,76,144.9,76,256s89.6,201.6,199.7,201.6c60.5,0,117-27.2,155.2-74.7C437,375.2,437.7,364.8,432.7,356.3z M275.7,428.8c-94.2,0-170.9-77.5-170.9-172.8S181.5,83.2,275.7,83.2c4.4,0,10.4,0.4,16.3,0.9c-42,30-67.6,79.1-67.6,131.6c0,48.5,21.3,93.9,58.5,124.6c32.6,26.9,74,39.5,115.6,35.7C366.5,409.7,322.4,428.8,275.7,428.8z"/>
</svg>
