<svg xmlns="http://www.w3.org/2000/svg" viewBox="0 0 28 28">
<path d="M14,0c7.7,0,14,6.3,14,14c0,7.8-6.3,14-14,14C6.2,28,0,21.8,0,14C0,6.3,6.2,0,14,0z M14,25.4c6.2,0,11.4-5.1,11.4-11.4c0-6.2-5.1-11.4-11.4-11.4C7.7,2.6,2.6,7.8,2.6,14C2.6,20.3,7.7,25.4,14,25.4z M14,18.4c0.9,0,1.8,0.8,1.8,1.8s-0.8,1.8-1.8,1.8c-1,0-1.8-0.8-1.8-1.8S13,18.4,14,18.4z M15.8,7c2.2,0,3.9,1.7,3.8,3.8c0,1.3-0.7,2.6-1.9,3.3l-2.5,1.5v0.1c0,0.7-0.6,1.3-1.3,1.3s-1.3-0.6-1.3-1.3v-0.9c0-0.4,0.2-0.9,0.7-1.1l3.1-1.9c0.4-0.2,0.6-0.6,0.6-1c0-0.7-0.6-1.2-1.3-1.2H13c-0.7,0-1.1,0.5-1.1,1.2c0,0.7-0.6,1.3-1.3,1.3c-0.7,0-1.3-0.6-1.3-1.3C9.2,8.7,10.9,7,13,7H15.8z"/>
</svg>
