<svg width="628" height="740" viewBox="0 0 628 740" xmlns="http://www.w3.org/2000/svg">
<path d="M760.685 450.203C759.104 456.133 757.72 461.865 756.139 467.795C745.07 507.721 723.921 542.311 695.459 571.564C629.441 639.36 580.818 718.818 538.124 802.229C536.741 804.799 535.555 807.566 533.776 809.74C529.427 815.077 524.091 817.448 517.568 813.891C511.243 810.531 508.673 804.996 509.859 797.88C510.255 796.102 511.045 794.323 511.836 792.741C547.414 723.364 586.352 656.161 636.557 596.271C649.8 580.459 664.822 565.832 678.46 550.217C698.621 527.289 715.422 501.989 726.293 473.329C731.827 458.702 734.792 444.273 731.037 428.263C724.514 400.394 719.375 372.129 713.643 343.864C713.05 341.295 712.259 338.923 711.469 336.353C687.355 342.085 670.949 365.804 673.123 390.313C674.112 401.58 674.507 413.241 673.321 424.508C671.542 445.459 661.462 462.853 647.033 477.875C621.14 504.954 592.282 528.277 560.657 548.438C553.146 553.182 546.228 553.577 538.322 549.624C507.487 534.602 476.455 519.976 445.423 505.349C438.901 502.187 435.145 497.838 433.366 490.723C428.03 470.364 421.902 450.401 416.566 430.042C415.38 425.891 415.775 420.357 417.554 416.404C430.006 388.534 442.854 360.665 456.097 332.993C458.271 328.447 461.829 324.099 465.782 320.738C503.534 289.311 553.937 286.346 595.642 313.227C600.386 316.192 604.734 319.75 609.28 323.11C629.046 338.527 649.405 335.76 665.612 315.599C665.612 315.006 665.81 314.413 665.415 314.018C646.242 293.659 628.058 272.313 607.502 253.535C600.188 246.815 586.945 245.036 576.272 243.85C545.833 240.688 515.394 238.909 484.955 236.734C474.084 235.944 465.387 239.502 457.48 248.001C426.646 281.207 395.219 313.82 363.989 346.631C361.815 349.003 359.641 351.573 356.676 352.759C350.548 355.328 344.223 354.933 340.27 349.003C336.12 342.678 336.91 336.353 342.049 330.819C355.095 316.39 368.535 302.356 381.383 287.927C384.941 283.974 388.103 279.824 391.068 275.277C418.937 230.409 447.4 186.134 474.084 140.674C488.908 115.571 500.965 88.69 513.812 62.4017C522.905 43.822 517.766 26.0329 508.673 8.83681C505.313 2.31416 500.767 -3.61552 496.023 -11.1265C493.256 -6.77803 491.28 -4.2085 489.501 -1.24365C469.142 31.5673 449.179 64.5759 428.623 97.1892C413.205 121.699 397.986 146.603 380.395 169.531C354.304 204.121 335.527 242.269 317.737 281.405C304.297 311.251 288.88 340.306 282.159 372.722C278.602 390.116 273.858 407.509 272.672 425.298C271.486 440.518 273.66 456.133 275.637 471.352C284.136 536.777 294.019 602.003 301.53 667.427C305.68 703.401 307.262 739.77 301.925 775.743C300.541 785.428 297.972 795.113 295.007 804.403C292.042 813.693 284.729 817.448 277.218 814.681C269.114 811.914 266.149 804.601 269.312 795.113C279.985 763.488 278.206 730.875 276.23 698.459C271.684 618.013 257.255 538.951 245.395 459.493C241.442 432.217 245.198 405.533 252.313 379.64C258.243 358.095 257.255 337.144 255.871 315.599C253.697 280.812 251.918 246.024 249.941 211.039C247.767 170.322 245.988 129.605 243.814 88.8876C243.023 75.447 248.558 69.122 262.196 69.122C280.973 69.122 298.367 74.0634 314.18 84.3415C315.761 85.3298 317.342 86.1204 320.109 87.7017C321.691 74.854 323.272 62.797 324.655 50.74C328.016 22.2775 331.178 -6.38271 334.538 -34.8452C335.329 -42.3561 342.247 -47.8905 349.758 -46.9022C380.79 -42.7515 416.17 -22.3929 423.484 16.3478C424.867 23.2657 424.472 30.579 425.065 37.6946C425.263 40.4618 425.262 43.229 427.437 46.5892C429.018 44.0196 430.797 41.6478 432.378 39.0782C447.993 13.9759 463.41 -11.1265 479.025 -36.2288C486.338 -48.0882 494.442 -49.4718 504.127 -39.589C524.684 -18.2421 540.101 5.67432 543.659 36.1134C545.24 49.7517 542.275 62.5993 536.938 75.0517C518.952 118.141 495.035 158.265 469.933 197.401C467.166 201.749 464.596 206.295 461.038 212.225C468.549 211.83 474.281 211.632 480.013 211.237C519.347 209.26 558.087 212.423 596.433 220.922C610.862 224.084 623.116 230.607 633.395 241.676C652.963 263.023 673.123 283.974 692.494 305.519C696.249 309.67 698.819 310.263 703.76 307.891C719.177 300.182 728.467 303.147 733.013 319.75C740.92 348.41 747.047 377.663 753.569 406.521C756.139 417.59 758.116 428.856 760.29 439.925C760.685 443.681 760.685 447.041 760.685 450.203ZM645.649 360.665C643.475 360.665 641.696 360.467 639.72 360.665C622.721 363.037 607.699 357.898 594.259 347.817C590.701 345.05 587.143 342.283 583.388 339.516C552.158 317.576 515.394 317.774 484.559 340.109C481.397 342.283 478.63 345.643 477.048 349.003C465.782 372.524 454.516 396.045 443.842 419.764C442.261 423.322 441.866 428.066 442.854 431.821C446.609 446.448 450.76 461.074 455.504 475.503C456.887 479.456 460.248 483.805 464.003 485.584C488.71 498.036 513.812 509.5 538.717 521.755C544.252 524.522 548.205 524.324 553.344 520.964C580.62 502.582 605.327 481.235 628.058 457.517C638.929 446.052 645.254 432.612 645.452 416.602C645.847 398.417 645.649 379.838 645.649 360.665ZM360.431 -14.289C353.118 51.3329 345.805 116.164 338.491 183.17C341.061 180.995 342.049 180.6 342.445 179.809C359.641 154.114 376.837 128.617 393.835 102.921C395.812 99.9564 396.602 96.0032 396.8 92.4454C397.788 73.8657 398.579 55.286 399.172 36.7064C399.962 11.2087 383.952 -10.3358 360.431 -14.289ZM281.369 288.52C282.357 288.718 283.345 289.113 284.136 289.311C290.263 275.87 296.588 262.627 302.518 248.989C303.506 246.617 303.902 243.85 304.099 241.281C307.262 210.644 310.622 180.007 313.587 149.173C314.377 142.057 315.959 134.546 314.377 127.826C310.622 112.013 290.659 98.7704 272.079 98.9681C275.241 162.218 278.404 225.468 281.369 288.52Z" fill="#B9B8D3"/>
</svg>
