<svg aria-hidden="true" style="width: 0px; height: 0px; overflow: hidden; position: absolute;" xmlns="http://www.w3.org/2000/svg">
    <symbol id="burger_icon" viewBox="0 0 14 14">
      <path d="M0,2c0-0.4,0.3-0.8,0.8-0.8h12.5C13.7,1.3,14,1.6,14,2c0,0.4-0.3,0.8-0.8,0.8H0.8C0.3,2.8,0,2.4,0,2z M0,7c0-0.4,0.3-0.8,0.8-0.8h12.5C13.7,6.3,14,6.6,14,7c0,0.4-0.3,0.8-0.8,0.8H0.8C0.3,7.8,0,7.4,0,7z M13.3,12.8H0.8C0.3,12.8,0,12.4,0,12c0-0.4,0.3-0.8,0.8-0.8h12.5c0.4,0,0.8,0.3,0.8,0.8C14,12.4,13.7,12.8,13.3,12.8z"/>
    </symbol>
    <symbol id="city_icon" viewBox="0 0 20 20">
      <path d="M18.7,9.2c0.3,0.3,0.3,0.8,0.1,1.1c-0.3,0.3-0.8,0.3-1.1,0.1L17,9.7v5.8c0,1.4-1.1,2.5-2.5,2.5h-9C4.1,18,3,16.9,3,15.5V9.7l-0.8,0.7c-0.3,0.3-0.8,0.2-1.1-0.1C0.9,9.9,1,9.5,1.3,9.2l8.3-7c0.3-0.2,0.7-0.2,1,0L18.7,9.2z M5.5,16.5H7v-4.8c0-0.7,0.5-1.3,1.2-1.3h3.5c0.7,0,1.3,0.6,1.3,1.3v4.8h1.5c0.5,0,1-0.4,1-1V8.4L10,3.7L4.5,8.4v7.1C4.5,16.1,5,16.5,5.5,16.5z M8.5,16.5h3V12h-3V16.5z"/>
    </symbol>
    <symbol id="email_icon" viewBox="0 0 20 20">
      <path d="M2,6c0-1.1,0.9-2,2-2h12c1.1,0,2,0.9,2,2v8c0,1.1-0.9,2-2,2H4c-1.1,0-2-0.9-2-2V6z M3.5,6v0.7l5.4,4.4c0.7,0.5,1.6,0.5,2.2,0l5.4-4.4V6c0-0.3-0.3-0.5-0.5-0.5H4C3.7,5.5,3.5,5.8,3.5,6z M3.5,8.7V14c0,0.3,0.2,0.5,0.5,0.5h12c0.3,0,0.5-0.2,0.5-0.5V8.7l-4.4,3.6c-1.2,1-2.9,1-4.2,0L3.5,8.7z"/>
    </symbol>
    <symbol id="phone_icon" viewBox="0 0 20 20">
      <path d="M17,12c0.7,0.3,1.1,1.1,0.9,1.9l-0.7,2.8c-0.1,0.8-0.8,1.3-1.6,1.3C8.1,18,2,11.9,2,4.3c0-0.8,0.5-1.4,1.3-1.6l2.8-0.7C6.9,1.9,7.7,2.3,8,3l1.3,3.1C9.6,6.8,9.4,7.6,8.9,8L7.8,8.9c0.8,1.4,2,2.5,3.4,3.3l0.8-1c0.5-0.6,1.3-0.8,1.9-0.5L17,12z M16.5,13.6c0-0.1,0-0.1-0.1-0.2l-3.1-1.3c-0.1,0-0.1,0-0.2,0L12,13.6c-0.2,0.3-0.6,0.3-0.9,0.2c-2.1-1-3.8-2.8-4.8-4.8C6,8.6,6.1,8.3,6.4,8.1l1.5-1.3c0.1,0,0.1-0.1,0-0.2L6.6,3.6c0,0-0.1-0.1-0.1-0.1l0,0L3.6,4.2c-0.1,0-0.1,0.1-0.1,0.1C3.5,11,9,16.5,15.7,16.5c0.1,0,0.1-0.1,0.1-0.1L16.5,13.6z"/>
    </symbol>
    <symbol id="user_icon" viewBox="0 0 20 20">
      <path d="M11.5,11.5c3,0,5.5,2.5,5.5,5.5c0,0.6-0.5,1-1,1H4c-0.6,0-1-0.4-1-1c0-3,2.4-5.5,5.5-5.5H11.5z M4.5,16.5h11c-0.3-2-1.9-3.5-4-3.5h-3C6.4,13,4.8,14.5,4.5,16.5z M10,10c-2.2,0-4-1.8-4-4c0-2.2,1.8-4,4-4c2.2,0,4,1.8,4,4C14,8.2,12.2,10,10,10z M10,3.5C8.6,3.5,7.5,4.6,7.5,6c0,1.4,1.1,2.5,2.5,2.5c1.4,0,2.5-1.1,2.5-2.5C12.5,4.6,11.4,3.5,10,3.5z"/>
    </symbol>
    <symbol id="question_icon" viewBox="0 0 28 28">
      <path d="M14,0c7.7,0,14,6.3,14,14c0,7.8-6.3,14-14,14C6.2,28,0,21.8,0,14C0,6.3,6.2,0,14,0z M14,25.4c6.2,0,11.4-5.1,11.4-11.4c0-6.2-5.1-11.4-11.4-11.4C7.7,2.6,2.6,7.8,2.6,14C2.6,20.3,7.7,25.4,14,25.4z M14,18.4c0.9,0,1.8,0.8,1.8,1.8s-0.8,1.8-1.8,1.8c-1,0-1.8-0.8-1.8-1.8S13,18.4,14,18.4z M15.8,7c2.2,0,3.9,1.7,3.8,3.8c0,1.3-0.7,2.6-1.9,3.3l-2.5,1.5v0.1c0,0.7-0.6,1.3-1.3,1.3s-1.3-0.6-1.3-1.3v-0.9c0-0.4,0.2-0.9,0.7-1.1l3.1-1.9c0.4-0.2,0.6-0.6,0.6-1c0-0.7-0.6-1.2-1.3-1.2H13c-0.7,0-1.1,0.5-1.1,1.2c0,0.7-0.6,1.3-1.3,1.3c-0.7,0-1.3-0.6-1.3-1.3C9.2,8.7,10.9,7,13,7H15.8z"/>
    </symbol>
    <symbol id="wrench_icon" viewBox="0 0 20 20">
      <path d="M17.9,5.7c0.4,1.6-0.1,3.4-1.3,4.6s-2.9,1.7-4.5,1.3l-5.7,5.7C5.9,17.7,5.2,18,4.5,18s-1.4-0.3-1.8-0.8C2.3,16.7,2,16.1,2,15.4s0.3-1.3,0.7-1.8l5.8-5.7C8.1,6.3,8.6,4.6,9.8,3.4c1.2-1.2,2.9-1.7,4.6-1.3c0.4,0.1,0.7,0.4,0.8,0.8c0.1,0.4,0,0.8-0.3,1.1L13,5.8l0.2,1l1,0.2L16,5.1c0.3-0.3,0.7-0.4,1.1-0.3C17.5,5,17.8,5.3,17.9,5.7z M15.5,9.2c0.7-0.6,1-1.5,1-2.4l-1.8,1.8l-2.8-0.5l-0.5-2.8l1.7-1.8h0c-0.8,0-1.7,0.3-2.3,1c-0.9,0.9-1.2,2.2-0.7,3.4l0.1,0.4l-6.4,6.3c-0.2,0.2-0.3,0.5-0.3,0.8c0,0.3,0.1,0.6,0.3,0.8c0.4,0.4,1.1,0.4,1.5,0l6.4-6.3l0.4,0.2C13.3,10.4,14.6,10.1,15.5,9.2z M4.7,14.7c0.3,0,0.5,0.3,0.5,0.5c0,0.3-0.2,0.5-0.5,0.5s-0.5-0.3-0.5-0.5C4.3,15,4.4,14.7,4.7,14.7z"/>
    </symbol>
    <symbol id="exit_icon" viewBox="0 0 20 20">
      <path d="M8,16.3C8,16.7,7.7,17,7.3,17H5c-1.7,0-3-1.3-3-3V6c0-1.7,1.3-3,3-3h2.3C7.7,3,8,3.3,8,3.8c0,0.4-0.3,0.8-0.7,0.8H5C4.2,4.5,3.5,5.2,3.5,6v8c0,0.8,0.7,1.5,1.5,1.5h2.3C7.7,15.5,8,15.8,8,16.3z M17.8,9.5l-4-4.3c-0.3-0.3-0.8-0.3-1.1,0s-0.3,0.8,0,1.1l2.8,3H7.7C7.3,9.3,7,9.6,7,10c0,0.4,0.3,0.8,0.7,0.8h7.8l-2.8,3c-0.3,0.3-0.3,0.8,0,1.1c0.2,0.1,0.4,0.2,0.5,0.2c0.2,0,0.4-0.1,0.5-0.2l4-4.2C18.1,10.3,18.1,9.8,17.8,9.5z"/>
    </symbol>
    <symbol id="close_icon" viewBox="0 0 14 14">
      <path d="M13.7,13.7c-0.3,0.3-0.7,0.3-1,0L7,8l-5.7,5.7c-0.3,0.3-0.7,0.3-1,0c-0.3-0.3-0.3-0.7,0-1L6,7L0.3,1.3C0,1,0,0.6,0.3,0.3C0.6,0,1,0,1.3,0.3L7,6l5.7-5.7c0.3-0.3,0.7-0.3,1,0c0.3,0.3,0.3,0.7,0,1L8,7l5.7,5.7C14,13,14,13.4,13.7,13.7z"/>
    </symbol>
    <symbol id="users_icon" viewBox="0 0 20 20">
      <path d="M10,11.8c-1.6,0-2.8-1.3-2.8-2.8c0-1.6,1.3-2.8,2.8-2.8c1.6,0,2.8,1.3,2.8,2.8C12.8,10.5,11.6,11.8,10,11.8z M10,7.4c-0.8,0-1.5,0.7-1.5,1.5c0,0.8,0.7,1.5,1.5,1.5c0.8,0,1.5-0.7,1.5-1.5C11.5,8.1,10.8,7.4,10,7.4z M15.3,7.4c-1.2,0-2.2-1-2.2-2.2C13.1,4,14,3,15.3,3c1.2,0,2.2,1,2.2,2.2C17.4,6.4,16.5,7.4,15.3,7.4z M11.3,12.6c2.2,0,3.9,1.6,3.9,3.7c0,0.4-0.4,0.7-0.8,0.7H5.5c-0.4,0-0.8-0.3-0.8-0.7c0-2,1.7-3.7,3.9-3.7H11.3z M6.1,15.7h7.7c-0.3-1-1.3-1.8-2.5-1.8H8.6C7.4,13.9,6.4,14.7,6.1,15.7z M16.3,8.3c1.3,0,2.4,1.1,2.4,2.6c0,0.3-0.2,0.5-0.5,0.5h-5.5c0.6-0.6,0.9-1.5,0.9-2.4c0-0.1,0-0.3,0-0.4c0.3-0.1,0.6-0.2,1-0.2H16.3z M6.3,8.9c0,0.9,0.4,1.8,0.9,2.4H1.7c-0.3,0-0.5-0.2-0.5-0.5c0-1.4,1.1-2.6,2.4-2.6h1.7c0.4,0,0.7,0.1,1,0.2C6.3,8.6,6.3,8.8,6.3,8.9z M4.8,7.4c-1.2,0-2.2-1-2.2-2.2C2.6,4,3.5,3,4.8,3C6,3,6.9,4,6.9,5.2C6.9,6.4,6,7.4,4.8,7.4z"/>
    </symbol>
    <symbol id="double_check_icon" viewBox="0 0 10 10">
      <path d="M4.1,4.7c-0.2,0.2-0.5,0.2-0.6,0L1.9,3.1C1.7,3,1.7,2.7,1.9,2.5c0.2-0.2,0.5-0.2,0.6,0l1.3,1.3l2.8-2.8c0.2-0.2,0.5-0.2,0.6,0c0.2,0.2,0.2,0.5,0,0.6L4.1,4.7z M4.1,9.1c-0.2,0.2-0.5,0.2-0.6,0L0.8,6.4c-0.2-0.2-0.2-0.5,0-0.7c0.2-0.2,0.5-0.2,0.6,0l2.3,2.3l4.8-4.8c0.2-0.2,0.5-0.2,0.6,0c0.2,0.2,0.2,0.5,0,0.7L4.1,9.1z"/>
    </symbol>
    <symbol id="chevron_down_icon" viewBox="0 0 14 14">
      <path d="M13.8,3.8c0.2,0.1,0.2,0.4,0,0.5l-6.5,6.5c-0.2,0.2-0.4,0.2-0.5,0L0.2,4.3C0,4.2,0,3.9,0.2,3.8l0.6-0.6C1,3,1.2,3,1.3,3.2L7,8.8l5.7-5.7C12.8,3,13,3,13.2,3.2L13.8,3.8z"/>
    </symbol>
    <symbol id="box_icon" viewBox="0 0 11 11">
      <path d="M5.1,0.6c0.2-0.1,0.5-0.1,0.8,0l3.9,1.5c0.4,0.2,0.7,0.6,0.7,1v4.7c0,0.5-0.3,0.9-0.7,1l-3.9,1.5c-0.2,0.1-0.5,0.1-0.8,0L1.2,8.9c-0.4-0.2-0.7-0.6-0.7-1V3.1c0-0.5,0.3-0.9,0.7-1L5.1,0.6z M5.5,1.5C5.5,1.5,5.5,1.5,5.5,1.5L1.7,2.9l3.8,1.5l3.8-1.5L5.5,1.5z M1.5,8L5,9.4V5.2L1.4,3.8v4.1C1.4,8,1.5,8,1.5,8z M6,9.4L9.4,8C9.5,8,9.6,8,9.6,7.9V3.8L6,5.2V9.4z"/>
    </symbol>
    <symbol id="lock_icon" viewBox="0 0 10 10">
      <path d="M2.5,3.8V2.5C2.5,1.1,3.6,0,5,0c1.4,0,2.5,1.1,2.5,2.5v1.3h0.6c0.7,0,1.3,0.6,1.3,1.3v3.8c0,0.7-0.6,1.3-1.3,1.3H1.9c-0.7,0-1.3-0.5-1.3-1.3V5c0-0.7,0.5-1.3,1.3-1.3H2.5z M3.4,3.8h3.1V2.5c0-0.9-0.7-1.6-1.6-1.6c-0.9,0-1.6,0.7-1.6,1.6V3.8z M1.6,8.8c0,0.2,0.1,0.3,0.3,0.3h6.3c0.2,0,0.3-0.1,0.3-0.3V5c0-0.2-0.2-0.3-0.3-0.3H1.9C1.7,4.7,1.6,4.8,1.6,5V8.8z"/>
    </symbol>
    <symbol id="check_icon" viewBox="0 0 10 10">
      <path d="M9.2,2.1c0.2,0.2,0.2,0.5,0,0.7L4.1,7.9c-0.2,0.2-0.5,0.2-0.6,0L0.8,5.2c-0.2-0.2-0.2-0.5,0-0.7c0.2-0.2,0.5-0.2,0.6,0l2.3,2.3l4.8-4.8C8.8,1.9,9.1,1.9,9.2,2.1z"/>
    </symbol>
    <symbol id="minus_icon" viewBox="0 0 14 14">
      <path d="M12.5,8h-11c-0.6,0-1-0.4-1-1c0-0.5,0.4-1,1-1h11c0.5,0,1,0.5,1,1C13.5,7.6,13,8,12.5,8z"/>
    </symbol>
    <symbol id="plus_icon" viewBox="0 0 14 14">
      <path d="M13.5 7C13.5 7.5625 13.0312 8.03125 12.5 8.03125H8V12.5312C8 13.0625 7.53125 13.5 7 13.5C6.4375 13.5 6 13.0625 6 12.5312V8.03125H1.5C0.9375 8.03125 0.5 7.5625 0.5 7C0.5 6.46875 0.9375 6.03125 1.5 6.03125H6V1.53125C6 0.96875 6.4375 0.5 7 0.5C7.53125 0.5 8 0.96875 8 1.53125V6.03125H12.5C13.0312 6 13.5 6.46875 13.5 7Z"/>
    </symbol>
    <symbol id="arrow_up_icon" viewBox="0 0 16 16">
      <path d="M8,2L0,14h16L8,2z"/>
    </symbol>
    <symbol id="arrow_down_icon" viewBox="0 0 16 16">
      <path d="M8,14l8-12H0L8,14z"/>
    </symbol>
    <symbol id="" viewBox="0 0 24 24">
    </symbol>
    <symbol id="" viewBox="0 0 24 24">
    </symbol>
    <symbol id="" viewBox="0 0 24 24">
    </symbol>
</svg>
