<svg aria-hidden="true" style="width: 0px; height: 0px; overflow: hidden; position: absolute;" xmlns="http://www.w3.org/2000/svg">
    <symbol id="burger_icon" viewBox="0 0 14 14">
      <path d="M0,2c0-0.4,0.3-0.8,0.8-0.8h12.5C13.7,1.3,14,1.6,14,2c0,0.4-0.3,0.8-0.8,0.8H0.8C0.3,2.8,0,2.4,0,2z M0,7c0-0.4,0.3-0.8,0.8-0.8h12.5C13.7,6.3,14,6.6,14,7c0,0.4-0.3,0.8-0.8,0.8H0.8C0.3,7.8,0,7.4,0,7z M13.3,12.8H0.8C0.3,12.8,0,12.4,0,12c0-0.4,0.3-0.8,0.8-0.8h12.5c0.4,0,0.8,0.3,0.8,0.8C14,12.4,13.7,12.8,13.3,12.8z"/>
    </symbol>
    <symbol id="city_icon" viewBox="0 0 20 20">
      <path d="M18.7,9.2c0.3,0.3,0.3,0.8,0.1,1.1c-0.3,0.3-0.8,0.3-1.1,0.1L17,9.7v5.8c0,1.4-1.1,2.5-2.5,2.5h-9C4.1,18,3,16.9,3,15.5V9.7l-0.8,0.7c-0.3,0.3-0.8,0.2-1.1-0.1C0.9,9.9,1,9.5,1.3,9.2l8.3-7c0.3-0.2,0.7-0.2,1,0L18.7,9.2z M5.5,16.5H7v-4.8c0-0.7,0.5-1.3,1.2-1.3h3.5c0.7,0,1.3,0.6,1.3,1.3v4.8h1.5c0.5,0,1-0.4,1-1V8.4L10,3.7L4.5,8.4v7.1C4.5,16.1,5,16.5,5.5,16.5z M8.5,16.5h3V12h-3V16.5z"/>
    </symbol>
    <symbol id="email_icon" viewBox="0 0 20 20">
      <path d="M2,6c0-1.1,0.9-2,2-2h12c1.1,0,2,0.9,2,2v8c0,1.1-0.9,2-2,2H4c-1.1,0-2-0.9-2-2V6z M3.5,6v0.7l5.4,4.4c0.7,0.5,1.6,0.5,2.2,0l5.4-4.4V6c0-0.3-0.3-0.5-0.5-0.5H4C3.7,5.5,3.5,5.8,3.5,6z M3.5,8.7V14c0,0.3,0.2,0.5,0.5,0.5h12c0.3,0,0.5-0.2,0.5-0.5V8.7l-4.4,3.6c-1.2,1-2.9,1-4.2,0L3.5,8.7z"/>
    </symbol>
    <symbol id="phone_icon" viewBox="0 0 20 20">
      <path d="M17,12c0.7,0.3,1.1,1.1,0.9,1.9l-0.7,2.8c-0.1,0.8-0.8,1.3-1.6,1.3C8.1,18,2,11.9,2,4.3c0-0.8,0.5-1.4,1.3-1.6l2.8-0.7C6.9,1.9,7.7,2.3,8,3l1.3,3.1C9.6,6.8,9.4,7.6,8.9,8L7.8,8.9c0.8,1.4,2,2.5,3.4,3.3l0.8-1c0.5-0.6,1.3-0.8,1.9-0.5L17,12z M16.5,13.6c0-0.1,0-0.1-0.1-0.2l-3.1-1.3c-0.1,0-0.1,0-0.2,0L12,13.6c-0.2,0.3-0.6,0.3-0.9,0.2c-2.1-1-3.8-2.8-4.8-4.8C6,8.6,6.1,8.3,6.4,8.1l1.5-1.3c0.1,0,0.1-0.1,0-0.2L6.6,3.6c0,0-0.1-0.1-0.1-0.1l0,0L3.6,4.2c-0.1,0-0.1,0.1-0.1,0.1C3.5,11,9,16.5,15.7,16.5c0.1,0,0.1-0.1,0.1-0.1L16.5,13.6z"/>
    </symbol>
    <symbol id="user_icon" viewBox="0 0 20 20">
      <path d="M11.5,11.5c3,0,5.5,2.5,5.5,5.5c0,0.6-0.5,1-1,1H4c-0.6,0-1-0.4-1-1c0-3,2.4-5.5,5.5-5.5H11.5z M4.5,16.5h11c-0.3-2-1.9-3.5-4-3.5h-3C6.4,13,4.8,14.5,4.5,16.5z M10,10c-2.2,0-4-1.8-4-4c0-2.2,1.8-4,4-4c2.2,0,4,1.8,4,4C14,8.2,12.2,10,10,10z M10,3.5C8.6,3.5,7.5,4.6,7.5,6c0,1.4,1.1,2.5,2.5,2.5c1.4,0,2.5-1.1,2.5-2.5C12.5,4.6,11.4,3.5,10,3.5z"/>
    </symbol>
    <symbol id="" viewBox="0 0 24 24">
    </symbol>
    <symbol id="" viewBox="0 0 24 24">
    </symbol>
    <symbol id="" viewBox="0 0 24 24">
    </symbol>
    <symbol id="" viewBox="0 0 24 24">
    </symbol>
    <symbol id="" viewBox="0 0 24 24">
    </symbol>
    <symbol id="" viewBox="0 0 24 24">
    </symbol>
</svg>
